<svg width="863" height="861" viewBox="0 0 863 861" fill="none" xmlns="http://www.w3.org/2000/svg">
<g opacity="0.15">
<path d="M742.674 430.648H431.989V740.321C431.989 805.949 485.981 859.796 551.792 859.796H862.477V550.122C862.476 484.494 808.485 430.649 742.674 430.648Z" stroke="#091423"/>
<path d="M311.189 0.5H0.504883V310.173C0.504883 375.801 54.4962 429.647 120.308 429.647H430.992V119.974C430.992 54.3456 377.001 0.500222 311.189 0.5Z" stroke="#091423"/>
</g>
<path fill-rule="evenodd" clip-rule="evenodd" d="M647.234 613.219C664.905 613.219 679.234 627.548 679.234 645.219C679.234 662.889 664.905 677.219 647.234 677.219C629.564 677.219 615.234 662.889 615.234 645.219C615.309 627.548 629.564 613.219 647.234 613.219Z" fill="#F7C331"/>
</svg>
