<svg width="24" height="25" viewBox="0 0 24 25" fill="none" xmlns="http://www.w3.org/2000/svg">
<g clip-path="url(#clip0_672_2938)">
<path d="M0.375 19.0345C0.375 18.8274 0.542906 18.6595 0.75 18.6595C1.31231 18.6595 1.572 18.4178 1.90073 18.1118C2.25914 17.7783 2.70516 17.3632 3.5625 17.3632C4.41984 17.3632 4.86586 17.7783 5.22422 18.1118C5.55295 18.4178 5.81264 18.6595 6.37495 18.6595C6.93731 18.6595 7.197 18.4178 7.52573 18.1118C7.88414 17.7783 8.33011 17.3632 9.18745 17.3632C10.0448 17.3632 10.4908 17.7783 10.8492 18.1118C11.178 18.4178 11.4376 18.6595 12 18.6595C12.5623 18.6595 12.822 18.4178 13.1507 18.1118C13.5091 17.7783 13.9551 17.3632 14.8125 17.3632C15.6698 17.3632 16.1158 17.7783 16.4742 18.1118C16.803 18.4178 17.0626 18.6595 17.625 18.6595C18.1873 18.6595 18.447 18.4178 18.7757 18.1118C19.1341 17.7783 19.5801 17.3632 20.4375 17.3632C21.2948 17.3632 21.7408 17.7783 22.0992 18.1118C22.428 18.4178 22.6876 18.6595 23.25 18.6595C23.457 18.6595 23.625 18.8274 23.625 19.0345C23.625 19.2416 23.457 19.4095 23.25 19.4095C22.3926 19.4095 21.9466 18.9944 21.5882 18.6609C21.2595 18.3549 20.9998 18.1132 20.4375 18.1132C19.8751 18.1132 19.6155 18.3549 19.2867 18.6609C18.9283 18.9944 18.4823 19.4095 17.6249 19.4095C16.7676 19.4095 16.3215 18.9944 15.9632 18.6609C15.6345 18.3549 15.3748 18.1132 14.8124 18.1132C14.2501 18.1132 13.9904 18.3549 13.6617 18.6609C13.3033 18.9944 12.8573 19.4095 12 19.4095C11.1426 19.4095 10.6966 18.9944 10.3382 18.6609C10.0095 18.3549 9.74977 18.1132 9.18741 18.1132C8.62509 18.1132 8.36541 18.3549 8.03667 18.6609C7.67827 18.9944 7.23225 19.4095 6.37491 19.4095C5.51756 19.4095 5.07155 18.9944 4.71319 18.6609C4.38445 18.3549 4.12477 18.1132 3.56245 18.1132C3.00009 18.1132 2.74045 18.3549 2.41167 18.6609C2.05327 18.9944 1.60725 19.4095 0.749953 19.4095C0.542906 19.4095 0.375 19.2416 0.375 19.0345ZM23.25 21.1346C22.6876 21.1346 22.428 20.8929 22.0992 20.5869C21.7408 20.2534 21.2948 19.8383 20.4375 19.8383C19.5802 19.8383 19.1341 20.2534 18.7758 20.5869C18.447 20.8929 18.1873 21.1346 17.625 21.1346C17.0627 21.1346 16.803 20.8929 16.4743 20.5869C16.1159 20.2534 15.6698 19.8383 14.8125 19.8383C13.9552 19.8383 13.5091 20.2534 13.1508 20.5869C12.822 20.8929 12.5624 21.1346 12 21.1346C11.4377 21.1346 11.178 20.8929 10.8493 20.5869C10.4909 20.2534 10.0448 19.8383 9.1875 19.8383C8.33016 19.8383 7.88414 20.2534 7.52578 20.5869C7.19705 20.8929 6.93736 21.1346 6.375 21.1346C5.81269 21.1346 5.553 20.8929 5.22427 20.5869C4.86586 20.2534 4.41989 19.8383 3.56255 19.8383C2.7052 19.8383 2.25919 20.2534 1.90078 20.5869C1.57205 20.8929 1.31236 21.1346 0.750047 21.1346C0.542953 21.1346 0.375047 21.3025 0.375047 21.5096C0.375047 21.7167 0.542953 21.8846 0.750047 21.8846C1.60739 21.8846 2.05341 21.4695 2.41177 21.136C2.74055 20.83 3.00019 20.5883 3.56255 20.5883C4.12486 20.5883 4.38455 20.83 4.71328 21.136C5.07169 21.4695 5.51766 21.8846 6.375 21.8846C7.23234 21.8846 7.67836 21.4695 8.03677 21.136C8.3655 20.83 8.62519 20.5883 9.1875 20.5883C9.74986 20.5883 10.0095 20.83 10.3383 21.136C10.6967 21.4695 11.1427 21.8846 12 21.8846C12.8574 21.8846 13.3034 21.4695 13.6618 21.136C13.9905 20.83 14.2502 20.5883 14.8125 20.5883C15.3749 20.5883 15.6345 20.83 15.9633 21.136C16.3217 21.4695 16.7677 21.8846 17.625 21.8846C18.4824 21.8846 18.9284 21.4695 19.2868 21.136C19.6155 20.83 19.8752 20.5883 20.4375 20.5883C20.9999 20.5883 21.2595 20.83 21.5883 21.136C21.9467 21.4695 22.3927 21.8846 23.25 21.8846C23.4571 21.8846 23.625 21.7167 23.625 21.5096C23.625 21.3025 23.4571 21.1346 23.25 21.1346ZM23.25 23.6097C22.6876 23.6097 22.428 23.368 22.0992 23.062C21.7408 22.7285 21.2948 22.3133 20.4375 22.3133C19.5802 22.3133 19.1341 22.7285 18.7758 23.062C18.447 23.368 18.1873 23.6097 17.625 23.6097C17.0627 23.6097 16.803 23.368 16.4743 23.062C16.1159 22.7285 15.6698 22.3133 14.8125 22.3133C13.9552 22.3133 13.5091 22.7285 13.1508 23.062C12.822 23.368 12.5624 23.6097 12 23.6097C11.4377 23.6097 11.178 23.368 10.8493 23.062C10.4909 22.7285 10.0448 22.3133 9.1875 22.3133C8.33016 22.3133 7.88414 22.7285 7.52578 23.062C7.197 23.368 6.93736 23.6097 6.375 23.6097C5.81269 23.6097 5.553 23.368 5.22427 23.062C4.86586 22.7285 4.41989 22.3133 3.56255 22.3133C2.7052 22.3133 2.25919 22.7285 1.90078 23.062C1.57205 23.368 1.31236 23.6097 0.750047 23.6097C0.542953 23.6097 0.375047 23.7776 0.375047 23.9847C0.375047 24.1918 0.542953 24.3597 0.750047 24.3597C1.60739 24.3597 2.05341 23.9446 2.41177 23.611C2.74055 23.305 3.00019 23.0633 3.56255 23.0633C4.12486 23.0633 4.38455 23.305 4.71328 23.611C5.07169 23.9446 5.51766 24.3597 6.375 24.3597C7.23234 24.3597 7.67836 23.9446 8.03677 23.611C8.36555 23.305 8.62519 23.0633 9.1875 23.0633C9.74986 23.0633 10.0095 23.305 10.3383 23.611C10.6967 23.9446 11.1427 24.3597 12 24.3597C12.8574 24.3597 13.3034 23.9446 13.6618 23.611C13.9905 23.305 14.2502 23.0633 14.8125 23.0633C15.3749 23.0633 15.6345 23.305 15.9633 23.611C16.3217 23.9446 16.7677 24.3597 17.625 24.3597C18.4824 24.3597 18.9284 23.9446 19.2868 23.611C19.6155 23.305 19.8752 23.0633 20.4375 23.0633C20.9999 23.0633 21.2595 23.305 21.5883 23.611C21.9467 23.9446 22.3927 24.3597 23.25 24.3597C23.4571 24.3597 23.625 24.1918 23.625 23.9847C23.625 23.7776 23.4571 23.6097 23.25 23.6097ZM6.24848 17.3318V12.3683C6.24848 10.0347 7.72519 8.03971 9.79308 7.2681C9.75211 6.8272 9.73955 6.41109 9.75713 6.0322C9.82533 4.5621 10.323 4.12401 10.7286 4.0153C10.7287 4.0153 10.7288 4.01526 10.7288 4.01526L19.9148 1.55385C20.3203 1.4452 20.9705 1.57574 21.7645 2.81479C22.309 3.6643 22.8008 4.84851 23.1493 6.14929C23.4978 7.45007 23.664 8.72151 23.6173 9.72937C23.5491 11.1995 23.0514 11.6376 22.6459 11.7463L13.4596 14.2078C13.3895 14.2265 13.3121 14.2381 13.2279 14.2382C12.825 14.2382 12.2668 13.9717 11.6099 12.9468C11.546 12.8471 11.4829 12.7423 11.4205 12.6337C11.2207 13.0573 11.1121 13.5257 11.1121 14.0104V16.8989C11.1121 17.106 10.9442 17.2739 10.7371 17.2739C10.53 17.2739 10.3621 17.106 10.3621 16.8989V14.0104C10.3621 13.2224 10.595 12.4695 11.0115 11.8326C10.787 11.341 10.581 10.7969 10.4018 10.2211C9.57141 10.9583 9.05531 12.0311 9.05531 13.1894V16.6571C9.05531 16.8642 8.88741 17.0321 8.68031 17.0321C8.47322 17.0321 8.30531 16.8642 8.30531 16.6571V13.1894C8.30531 11.6892 9.03328 10.3097 10.1791 9.43513C10.0575 8.95949 9.96066 8.48948 9.88988 8.0361C8.1938 8.74349 6.99848 10.4189 6.99848 12.3683V17.3318C6.99848 17.5389 6.83058 17.7068 6.62348 17.7068C6.41639 17.7068 6.24848 17.5389 6.24848 17.3318ZM14.431 12.1909C14.4116 12.6093 14.3573 12.9439 14.2804 13.2114L16.6587 12.5741C16.7829 12.5408 17.0299 12.2206 17.075 11.2469C17.1183 10.3141 16.9609 9.12393 16.6318 7.89571C15.8738 5.06709 14.7052 3.72688 14.3158 3.83062L11.9376 4.46788C12.138 4.66101 12.3523 4.9236 12.5783 5.27634C13.1227 6.12585 13.6145 7.31005 13.9631 8.61084C14.3116 9.91152 14.4778 11.183 14.431 12.1909ZM16.0766 3.35877L15.3307 3.55865C15.5311 3.75177 15.7454 4.01437 15.9715 4.3671C16.5159 5.21662 17.0077 6.40082 17.3563 7.7016C17.7048 9.00238 17.871 10.2738 17.8243 11.2817C17.8049 11.7001 17.7506 12.0348 17.6736 12.3022L18.4195 12.1023C18.5438 12.069 18.7906 11.7487 18.8358 10.7751C18.879 9.84229 18.7216 8.65209 18.3925 7.42391C18.0634 6.1957 17.6046 5.08626 17.1008 4.30002C16.5749 3.47943 16.201 3.32526 16.0766 3.35877ZM17.0915 3.08685C17.2919 3.27998 17.5062 3.54257 17.7322 3.8953C18.2766 4.74482 18.7684 5.92898 19.117 7.22976C19.4655 8.53054 19.6317 9.80198 19.585 10.8099C19.5656 11.2283 19.5113 11.563 19.4343 11.8304L22.4518 11.0219C22.8402 10.9178 23.1828 9.17216 22.4249 6.34345C22.0958 5.11523 21.637 4.00584 21.1331 3.21955C20.6496 2.4651 20.2945 2.27423 20.1438 2.27423C20.1306 2.27423 20.119 2.27568 20.109 2.2784L17.0915 3.08685ZM10.5272 7.05224C10.902 6.97035 11.291 6.92676 11.69 6.92676C11.8971 6.92676 12.065 7.09466 12.065 7.30176C12.065 7.50885 11.8971 7.67676 11.69 7.67676C11.3193 7.67676 10.9585 7.72016 10.6124 7.80187C10.6695 8.19149 10.7479 8.59673 10.8464 9.00923C11.2076 8.81929 11.5971 8.67421 12.0084 8.58327C12.2105 8.53855 12.4108 8.66624 12.4555 8.86851C12.5002 9.07073 12.3725 9.27088 12.1703 9.3156C11.7673 9.40466 11.3893 9.55541 11.0447 9.75585C11.1922 10.2597 11.3606 10.7394 11.5445 11.1801C11.8158 10.9112 12.1278 10.6781 12.4754 10.4914C12.6578 10.3934 12.8852 10.4618 12.9832 10.6443C13.0812 10.8268 13.0127 11.0541 12.8303 11.1521C12.463 11.3494 12.1441 11.6099 11.884 11.9156C11.9997 12.1414 12.1192 12.3514 12.2414 12.5421C12.7673 13.3627 13.1414 13.517 13.2656 13.4833C13.654 13.3792 13.9966 11.6336 13.2387 8.8049C12.9096 7.57668 12.4508 6.46724 11.9469 5.68096C11.421 4.86037 11.047 4.70643 10.9228 4.73976C10.7985 4.77304 10.5516 5.09329 10.5064 6.06693C10.4922 6.37054 10.4998 6.70171 10.5272 7.05224Z" fill="#091423"/>
</g>
<defs>
<clipPath id="clip0_672_2938">
<rect width="24" height="24" fill="white" transform="translate(0 0.945312)"/>
</clipPath>
</defs>
</svg>
