<svg width="80" height="84" viewBox="0 0 80 84" fill="none" xmlns="http://www.w3.org/2000/svg">
<path fill-rule="evenodd" clip-rule="evenodd" d="M45.1455 0H79.9963V34.8686C79.9963 43.3067 73.0885 50.2181 64.6547 50.2181H29.8203V15.3494C29.8203 6.91135 36.7117 0 45.1455 0Z" fill="white"/>
<path fill-rule="evenodd" clip-rule="evenodd" d="M32.8602 47.183H64.6755C71.4356 47.183 76.9816 41.6342 76.9816 34.8706V3.03906H45.1498C38.3897 3.03906 32.8438 8.58784 32.8438 15.3514V47.183H32.8602Z" fill="#23376C"/>
<path fill-rule="evenodd" clip-rule="evenodd" d="M54.9143 15.9375C59.9844 15.9375 64.0865 20.0416 64.0865 25.1143C64.0865 30.187 59.9844 34.2911 54.9143 34.2911C49.8442 34.2911 45.7422 30.187 45.7422 25.1143C45.7422 20.0416 49.8606 15.9375 54.9143 15.9375Z" fill="#FEFEFE"/>
<path fill-rule="evenodd" clip-rule="evenodd" d="M54.9156 18.0391C58.8208 18.0391 61.9875 21.2074 61.9875 25.1146C61.9875 29.0217 58.8208 32.1901 54.9156 32.1901C51.0105 32.1901 47.8438 29.0217 47.8438 25.1146C47.8602 21.2074 51.0105 18.0391 54.9156 18.0391Z" fill="#FECC00"/>
<path d="M35.319 61.072C35.2369 61.1705 35.1221 61.2361 34.958 61.3018C34.8103 61.3511 34.6791 61.3675 34.5314 61.3675C33.9571 61.3675 33.6782 61.1048 33.6782 60.5795C33.6782 60.5302 33.6782 60.3332 33.6946 59.9885C33.711 59.6437 33.711 59.3318 33.711 59.0692V58.9378C33.5961 58.9378 33.4813 58.9378 33.3828 58.9543V58.6423C33.4649 58.6423 33.5797 58.6588 33.711 58.6588V58.5438C33.711 58.3797 33.711 58.1827 33.711 57.9693L34.5314 57.8543C34.515 58.1334 34.4986 58.2976 34.4986 58.3633V58.6752C34.8267 58.6752 35.0564 58.6752 35.1877 58.6588V58.9707C35.04 58.9543 34.8103 58.9543 34.4986 58.9543V59.1841C34.4986 59.2826 34.4986 59.4796 34.4822 59.7751C34.4822 60.0542 34.4657 60.3004 34.4657 60.481C34.4657 60.7108 34.4986 60.875 34.5478 60.9571C34.597 61.0391 34.7119 61.0884 34.8431 61.0884C34.9252 61.0884 35.04 61.0227 35.1713 60.8914L35.319 61.072ZM38.6662 61.3182H37.6325C37.6489 60.6123 37.6653 60.1034 37.6653 59.7915C37.6653 59.4632 37.6489 59.2333 37.5997 59.1184C37.5505 58.9707 37.4192 58.8886 37.2387 58.8886C37.009 58.8886 36.8449 59.0199 36.7137 59.299C36.6316 59.496 36.5824 59.693 36.5824 59.8736V60.6287C36.5824 60.7272 36.5824 60.875 36.5824 61.0556C36.6152 61.0884 36.6644 61.1212 36.7465 61.1212H36.7957V61.3182H35.762C35.7784 60.8586 35.7948 60.4317 35.7948 60.0377V59.1184C35.7948 58.0021 35.7784 57.4275 35.762 57.3947C35.7292 57.3619 35.6799 57.3454 35.5979 57.3454H35.5487V57.1484H36.5988C36.5824 57.5096 36.5824 57.92 36.5824 58.3633V59.0528C36.7629 58.708 37.0582 58.5438 37.452 58.5438C37.7638 58.5438 38.0099 58.6259 38.1904 58.7901C38.3709 58.9543 38.4529 59.2005 38.4529 59.5124C38.4529 59.5781 38.4529 59.7258 38.4365 59.9392C38.4365 60.1527 38.4201 60.3168 38.4201 60.4317C38.4201 60.5467 38.4201 60.7436 38.4365 61.0391C38.4529 61.0884 38.5185 61.1212 38.617 61.1212H38.6662V61.3182ZM41.833 59.7422C41.833 59.7587 41.833 59.7915 41.833 59.8243C41.833 59.8572 41.833 59.89 41.833 59.9064H40.0281V59.9885C40.0281 60.7108 40.2906 61.072 40.7993 61.072C40.9798 61.072 41.1603 61.0227 41.2915 60.9406C41.4392 60.8422 41.5048 60.7436 41.5048 60.6287V60.5795H41.7181V61.0884C41.4556 61.269 41.0782 61.3675 40.586 61.3675C40.1758 61.3675 39.8476 61.2361 39.5687 60.9735C39.2897 60.7108 39.1585 60.3661 39.1585 59.9721C39.1585 59.5617 39.2897 59.2169 39.5523 58.9543C39.8148 58.6916 40.1594 58.5603 40.5696 58.5603C40.9469 58.5603 41.2587 58.6752 41.472 58.8886C41.7181 59.1184 41.833 59.3975 41.833 59.7422ZM41.029 59.5781C41.029 59.3154 41.0126 59.1348 40.9634 59.0363C40.8977 58.8886 40.7665 58.8065 40.5532 58.8065C40.225 58.8065 40.0445 59.0692 40.0117 59.5781H41.029ZM46.1975 59.3811H45.9842V59.3318C45.9842 59.1677 45.9022 59.102 45.7381 59.102C45.5576 59.102 45.41 59.1677 45.3115 59.3154C45.1802 59.4796 45.1146 59.7422 45.1146 60.087C45.1146 60.5302 45.1146 60.8421 45.131 61.072C45.1474 61.1212 45.2131 61.1541 45.3115 61.1541H45.3607V61.3511H44.3434C44.3598 61.1705 44.3598 60.8914 44.3762 60.5302V59.4796C44.3762 59.2333 44.3762 59.0363 44.3598 58.8886C44.3106 58.8558 44.2614 58.8558 44.1958 58.8558H44.1301V58.6588H45.0654C45.0982 58.905 45.0982 59.0856 45.0982 59.2005C45.3279 58.7901 45.5904 58.5931 45.853 58.5931C45.9678 58.5931 46.0827 58.6095 46.1975 58.6588V59.3811ZM49.1346 59.7422C49.1346 59.7587 49.1346 59.7915 49.1346 59.8243C49.1346 59.8572 49.1346 59.89 49.1346 59.9064H47.3297V59.9885C47.3297 60.7108 47.5922 61.072 48.1009 61.072C48.2814 61.072 48.4619 61.0227 48.5931 60.9406C48.7408 60.8422 48.8064 60.7436 48.8064 60.6287V60.5795H49.0197V61.0884C48.7572 61.269 48.3798 61.3675 47.8876 61.3675C47.4774 61.3675 47.1492 61.2361 46.8703 60.9735C46.5913 60.7108 46.4601 60.3661 46.4601 59.9721C46.4601 59.5617 46.5913 59.2169 46.8539 58.9543C47.1164 58.6916 47.461 58.5603 47.8712 58.5603C48.2486 58.5603 48.5603 58.6752 48.7736 58.8886C49.0197 59.1184 49.1346 59.3975 49.1346 59.7422ZM48.3306 59.5781C48.3306 59.3154 48.3142 59.1348 48.265 59.0363C48.1993 58.8886 48.0681 58.8065 47.8548 58.8065C47.5266 58.8065 47.3461 59.0692 47.3133 59.5781H48.3306ZM52.1537 61.3182H51.202L51.1528 61.0391C50.9067 61.269 50.6277 61.3675 50.2996 61.3675C50.0534 61.3675 49.8565 61.3018 49.7089 61.1869C49.5612 61.0556 49.4956 60.8914 49.4956 60.6616C49.4956 60.3332 49.6597 60.1034 49.9714 59.9557C50.0699 59.9064 50.3652 59.8407 50.841 59.7258C50.9887 59.693 51.0872 59.6602 51.1364 59.6273V59.5452C51.1364 59.299 51.1036 59.1184 51.0379 59.0035C50.9559 58.8722 50.8246 58.8065 50.6441 58.8065C50.4801 58.8065 50.316 58.8722 50.1683 58.9871C50.0206 59.1184 49.9222 59.2497 49.873 59.4139H49.6761V58.8886C49.8073 58.7737 49.9714 58.6916 50.2011 58.6423C50.398 58.5931 50.5949 58.5603 50.7754 58.5603C51.1528 58.5603 51.4317 58.6259 51.5958 58.7573C51.7927 58.9214 51.8911 59.1841 51.8911 59.5781V60.7436C51.8911 60.8914 51.8912 60.9899 51.9076 61.0227C51.924 61.0884 51.9896 61.1212 52.0716 61.1212H52.1209L52.1537 61.3182ZM51.1364 60.4317V59.9064C50.7918 59.9721 50.5621 60.0542 50.4472 60.1855C50.3652 60.284 50.316 60.4317 50.316 60.6451C50.316 60.8914 50.4308 61.0227 50.6605 61.0227C50.7918 61.0227 50.9067 60.9735 51.0051 60.875C51.0872 60.7601 51.1364 60.6123 51.1364 60.4317ZM53.9258 61.3182H52.892C52.9085 60.4646 52.9249 59.7751 52.9249 59.2333C52.9249 58.0349 52.9085 57.4275 52.892 57.4111C52.8592 57.3783 52.81 57.3618 52.728 57.3618H52.6623V57.1649H53.7125C53.696 57.723 53.6796 58.4125 53.696 59.2333C53.696 59.8407 53.696 60.4646 53.7125 61.0884C53.7453 61.1212 53.7945 61.1376 53.8765 61.1376H53.9258V61.3182ZM59.324 59.8736C59.324 60.3825 59.1763 60.7601 58.8974 61.0391C58.6513 61.269 58.3231 61.3839 57.9129 61.3839C57.6012 61.3839 57.3222 61.269 57.0761 61.0556C56.9613 61.1376 56.83 61.2361 56.6659 61.3839H56.4034C56.4034 61.3346 56.4198 60.8421 56.4198 59.89V58.3797C56.4198 58.0842 56.4198 57.7723 56.4034 57.4439C56.387 57.3783 56.3377 57.3618 56.2393 57.3618H56.1901V57.1649H57.2402C57.2238 57.6409 57.2074 58.1334 57.2074 58.6423C57.2074 58.6588 57.2074 58.7737 57.2074 58.9871C57.4207 58.7244 57.6996 58.5931 58.0278 58.5931C58.438 58.5931 58.7497 58.6916 58.963 58.905C59.1928 59.102 59.324 59.4303 59.324 59.8736ZM58.4708 59.9064C58.4708 59.2169 58.2575 58.8722 57.8309 58.8722C57.3715 58.8722 57.1417 59.299 57.1417 60.1362C57.1417 60.7929 57.3551 61.1212 57.7653 61.1212C58.2411 61.1048 58.4708 60.7108 58.4708 59.9064ZM61.1125 61.3182H60.0788C60.0952 60.4646 60.1116 59.7751 60.1116 59.2333C60.1116 58.0349 60.0952 57.4275 60.0788 57.4111C60.046 57.3783 59.9968 57.3618 59.9147 57.3618H59.8655V57.1649H60.9156C60.8992 57.723 60.8828 58.4125 60.8992 59.2333C60.8992 59.8407 60.8992 60.4646 60.9156 61.0884C60.9484 61.1212 60.9976 61.1376 61.0797 61.1376H61.1289V61.3182H61.1125ZM64.7059 61.3182H63.7542C63.7378 61.2197 63.7214 61.0884 63.705 60.8914C63.6394 61.0227 63.5081 61.1376 63.3112 61.2361C63.1143 61.3346 62.9338 61.3839 62.7533 61.3839C62.1462 61.3839 61.8509 61.072 61.8509 60.4317C61.8509 59.4467 61.8509 58.9378 61.8509 58.8886C61.8181 58.8393 61.7688 58.8229 61.6704 58.8229H61.6212V58.6259H62.6713C62.6385 58.8722 62.6221 59.2005 62.6221 59.5781C62.6221 59.6766 62.6221 59.89 62.6221 60.2347C62.6221 60.5138 62.6385 60.6944 62.6713 60.7765C62.7205 60.9078 62.8518 60.9899 63.0651 60.9899C63.4917 60.9899 63.7214 60.6287 63.7214 59.9064C63.7214 59.8407 63.7214 59.7422 63.7214 59.6109C63.7214 59.4796 63.7214 59.4139 63.7214 59.3647C63.7214 59.2497 63.7214 59.102 63.705 58.8886C63.6886 58.8393 63.6229 58.8065 63.5245 58.8065H63.4753V58.6095H64.509C64.4762 59.4467 64.4762 60.2512 64.509 61.0391C64.5418 61.072 64.591 61.1048 64.6731 61.1048H64.7223L64.7059 61.3182ZM67.8398 59.7422C67.8398 59.7587 67.8398 59.7915 67.8398 59.8243C67.8398 59.8572 67.8398 59.89 67.8398 59.9064H66.0349V59.9885C66.0349 60.7108 66.2975 61.072 66.8061 61.072C66.9866 61.072 67.1671 61.0227 67.2984 60.9406C67.446 60.8422 67.5117 60.7436 67.5117 60.6287V60.5795H67.725V61.0884C67.4624 61.269 67.0851 61.3675 66.5928 61.3675C66.1826 61.3675 65.8544 61.2361 65.5755 60.9735C65.2966 60.7108 65.1653 60.3661 65.1653 59.9721C65.1653 59.5617 65.2966 59.2169 65.5591 58.9543C65.8216 58.6916 66.1662 58.5603 66.5764 58.5603C66.9538 58.5603 67.2655 58.6752 67.4788 58.8886C67.725 59.1184 67.8398 59.3975 67.8398 59.7422ZM67.0358 59.5781C67.0358 59.3154 67.0194 59.1348 66.9702 59.0363C66.9046 58.8886 66.7733 58.8065 66.56 58.8065C66.2318 58.8065 66.0513 59.0692 66.0185 59.5781H67.0358Z" fill="white"/>
<path d="M14.5481 81.8199C14.5481 82.4108 14.3676 82.8705 13.9902 83.2153C13.6292 83.5436 13.1042 83.7242 12.4314 83.7242C12.3494 83.7242 12.2509 83.7242 12.1361 83.7078C12.0212 83.7078 11.9228 83.6913 11.8407 83.6913C11.6766 83.6913 11.4305 83.6913 11.1188 83.7078C11.1352 83.3138 11.1352 82.7063 11.1352 81.9184C11.1352 81.2124 11.1352 80.7035 11.1188 80.3752C11.1024 80.326 11.0531 80.3095 10.9711 80.3095H10.9219V80.1125H12.5791C13.1862 80.1125 13.662 80.2439 13.9902 80.5065C14.3512 80.802 14.5481 81.2453 14.5481 81.8199ZM13.6948 81.8691C13.6948 81.3602 13.5964 80.999 13.4159 80.7692C13.219 80.523 12.8908 80.408 12.4314 80.408C12.1525 80.408 11.9884 80.408 11.9228 80.408C11.9064 80.8677 11.9064 81.3274 11.9064 81.787C11.9064 82.4109 11.9064 82.9526 11.9228 83.4123C12.1197 83.4287 12.2181 83.4287 12.2509 83.4287C12.7924 83.4287 13.1698 83.2809 13.3995 83.0018C13.5964 82.7556 13.6948 82.378 13.6948 81.8691ZM22.867 83.166C22.867 83.2317 22.867 83.3302 22.867 83.4451C22.867 83.56 22.867 83.6421 22.867 83.7078H20.5698C20.6027 83.2481 20.6027 82.6407 20.6027 81.8855C20.6027 80.9169 20.5862 80.408 20.5698 80.3752C20.5534 80.3424 20.5042 80.3095 20.4222 80.3095H20.3729V80.1125H22.8013V80.6543H22.6209C22.6209 80.5394 22.6044 80.4737 22.5552 80.4573C22.2106 80.4245 21.8497 80.408 21.4723 80.408H21.4067C21.4067 80.802 21.3902 81.1632 21.3902 81.4915V81.6721L22.6701 81.6393V82.0004C22.1778 81.984 21.7512 81.9676 21.3902 81.9676V82.1482C21.3902 82.3452 21.3902 82.7556 21.4067 83.3958H21.4887C21.8333 83.3958 22.2107 83.3794 22.6537 83.3466C22.6865 83.3138 22.7029 83.2645 22.7029 83.1496L22.867 83.166ZM32.3016 80.1125V80.2931H32.2524C32.1704 80.2931 32.1211 80.3095 32.1047 80.3588C32.0883 81.0975 32.0719 81.8363 32.0719 82.5586C32.0719 82.8048 32.0719 83.1988 32.0719 83.7078H31.6125C31.1531 83.1332 30.3819 82.2795 29.3318 81.1468C29.3318 81.3766 29.3154 81.5572 29.3154 81.6885C29.3154 82.0989 29.3318 82.6899 29.3482 83.4451C29.381 83.4943 29.4302 83.5108 29.4958 83.5108H29.5451V83.6913H28.6754V83.5108H28.7247C28.8067 83.5108 28.8559 83.4943 28.8723 83.4451C28.9052 82.5422 28.938 81.6064 28.938 80.6215V80.0633H29.4302C30.0373 80.7692 30.4147 81.196 30.5296 81.3438C30.9234 81.787 31.3007 82.1974 31.6781 82.575C31.6781 82.5422 31.6781 82.4273 31.6781 82.2138C31.6781 81.0154 31.6617 80.3916 31.6453 80.3424C31.6289 80.2931 31.5633 80.2767 31.4976 80.2767H31.4484V80.1125H32.3016ZM39.4063 83.7078H38.3562C38.389 83.2153 38.4054 82.5586 38.4054 81.7706C38.4054 81.1468 38.4054 80.6871 38.389 80.3916C38.3726 80.3424 38.3234 80.3095 38.225 80.3095H38.1757V80.1125H39.2094C39.1766 80.605 39.1766 81.1632 39.1766 81.787C39.1766 82.6735 39.1766 83.2317 39.193 83.4287C39.2094 83.4943 39.2751 83.5108 39.3735 83.5108H39.4063V83.7078ZM49.8747 83.7078C49.7927 83.7078 49.6122 83.7078 49.3332 83.7078C49.0379 83.7078 48.9066 83.7078 48.923 83.7078C48.8738 82.8048 48.7918 82.0169 48.6769 81.3274C48.119 82.378 47.7417 83.1824 47.5448 83.7406H47.0361C46.7572 82.969 46.3798 82.1646 45.9204 81.2945C45.7891 82.2303 45.7071 82.9526 45.6906 83.4287C45.7071 83.4779 45.7727 83.5108 45.8547 83.5108H45.9039V83.6913H45.1492C45.2804 83.1003 45.4609 81.8855 45.6906 80.0633H46.1501C46.3634 80.523 46.5931 80.9826 46.8064 81.4423C47.0689 82.0004 47.315 82.4601 47.5119 82.8048C47.9057 82.0825 48.3488 81.1632 48.8574 80.0469H49.3168C49.3332 80.1618 49.4645 81.2945 49.727 83.4615C49.7599 83.4779 49.7927 83.4779 49.8255 83.4779H49.8747V83.7078ZM57.9475 82.6571C57.9475 83.0018 57.8162 83.2645 57.5373 83.4779C57.2748 83.6749 56.9302 83.7898 56.5364 83.7898C56.0606 83.7898 55.716 83.6913 55.4699 83.5108V82.9362H55.6504V82.9854C55.6504 83.0183 55.6668 83.0675 55.6832 83.1168C55.798 83.2481 55.8965 83.3302 55.9785 83.3794C56.1262 83.4779 56.3067 83.5272 56.5036 83.5272C56.7169 83.5272 56.8974 83.4779 57.0286 83.363C57.1763 83.2481 57.2419 83.0839 57.2419 82.8869C57.2419 82.7228 57.1927 82.5914 57.0943 82.4929C57.0122 82.4108 56.881 82.3288 56.7005 82.2467C56.3231 82.0989 56.077 81.9676 55.9457 81.8527C55.6996 81.6557 55.5847 81.393 55.5847 81.0647C55.5847 80.7364 55.716 80.4901 55.9621 80.3095C56.1918 80.1454 56.4872 80.0797 56.8482 80.0797C57.2091 80.0797 57.5373 80.1454 57.8162 80.2931V80.8841H57.6357V80.8349C57.6357 80.7856 57.6193 80.7364 57.5865 80.6871C57.3896 80.4737 57.1599 80.3588 56.9138 80.3588C56.7333 80.3588 56.5856 80.408 56.4708 80.4901C56.3559 80.5722 56.2903 80.7035 56.2903 80.8513C56.2903 81.0319 56.3395 81.1632 56.4379 81.2617C56.4872 81.3109 56.6348 81.393 56.8317 81.4751C57.1927 81.6393 57.4553 81.7706 57.5865 81.8855C57.8162 82.0661 57.9475 82.3288 57.9475 82.6571Z" fill="white"/>
<path d="M4.44055 61.9427C5.72038 61.6308 7.27915 60.9249 8.42772 60.1862C8.1816 59.4967 7.80421 58.9549 7.09866 58.5938C6.24544 59.3489 4.9492 60.6622 4.29288 61.795L4.44055 61.9427ZM3.91549 67.393C3.09508 66.8512 2.50439 66.3423 2.55362 65.5708C2.60284 64.5201 3.57092 63.6993 5.11328 63.6993C6.75409 63.6993 7.86984 64.5858 7.86984 65.9483H8.05033L8.29645 63.0755H7.06585C6.17981 62.9605 5.03124 62.8785 4.40773 62.8785C1.94652 62.8785 0.469787 64.2739 0.305706 66.2931C0.158033 67.7213 0.830766 68.9033 2.17623 69.7898L5.57271 72.0553C6.62283 72.7448 7.13148 73.2865 7.13148 74.0745C7.13148 75.2893 6.13058 76.2415 4.42414 76.2743C2.07778 76.3071 0.584644 74.6327 0.748725 72.597H0.601052C0.092401 73.4507 -0.186537 75.0923 0.141625 75.9132C0.847174 76.6519 2.48798 77.0951 4.24365 77.0951C7.36119 77.0951 9.28094 75.6012 9.3958 73.0567C9.47784 71.5956 8.80511 70.5778 7.64013 69.8226L3.91549 67.393ZM19.979 63.1575V63.3545H20.2252C20.7666 63.3545 21.226 64.0112 20.9143 64.5694L18.0101 69.6421L15.2371 64.5694C14.9581 64.0112 15.3519 63.3545 15.9262 63.3545H16.1723V63.1575H9.69114V63.3545H9.97008C10.7577 63.3545 11.5289 63.8799 11.9062 64.4709L15.6145 70.5942V75.4042C15.5981 76.0773 15.0402 76.6191 14.3675 76.6191H14.1213V76.8161H20.0447V76.6191H19.7985C19.1094 76.6191 18.5679 76.0773 18.5515 75.3878V70.5942L22.391 64.4709C22.8012 63.8799 23.5396 63.3381 24.36 63.3381H24.6389V63.1411L19.979 63.1575ZM26.1649 61.2861H31.5139V60.0056H26.1649V61.2861ZM28.8394 62.7635H28.6589C28.6097 63.3217 27.8385 65.029 27.7072 65.3245L23.195 75.5356C22.7848 76.3071 22.1121 76.6355 21.5542 76.6355H21.3737V76.8325H25.5578V76.6355H25.3937C24.8851 76.6355 24.3272 76.1922 24.6389 75.4042L25.6398 72.991H30.2177L31.1694 75.4042C31.4647 76.1922 30.9232 76.6355 30.4146 76.6355H30.2341V76.8325H36.4528V76.6355H36.2887C35.7144 76.6355 35.0417 76.3071 34.6315 75.5027L28.8394 62.7635ZM25.9844 72.1702L27.9862 67.3766L29.8895 72.1702H25.9844ZM51.3021 62.8949H51.1216L45.3131 72.8433L39.2586 62.8785H39.0781L37.4537 75.4042C37.3552 76.1758 36.7317 76.6355 36.0262 76.6355H35.7144V76.8325H39.8V76.6519H39.4883C39.0617 76.6519 38.6843 76.2415 38.7335 75.8147L39.5047 68.7884L44.5256 77.2265H44.706C44.7389 76.2743 45.4608 75.0759 45.4608 75.0759L49.1198 68.7556L49.891 75.8311C49.9402 76.2579 49.5464 76.6683 49.1362 76.6683H48.8245V76.8489H54.6822V76.6519H54.3704C53.6649 76.6519 53.0742 76.1922 52.9429 75.4207L51.3021 62.8949ZM61.4095 62.7635H61.229C61.1798 63.3217 60.4086 65.029 60.2773 65.3245L55.7651 75.5356C55.3549 76.3071 54.6822 76.6355 54.1243 76.6355H53.9438V76.8325H58.1279V76.6355H57.9638C57.4551 76.6355 56.8973 76.1922 57.209 75.4042L58.2099 72.991H62.7878L63.7559 75.4042C64.0512 76.1922 63.5097 76.6355 63.0011 76.6355H62.837V76.8325H69.0557V76.6355H68.8916C68.3173 76.6355 67.6446 76.3071 67.2344 75.5027L61.4095 62.7635ZM58.5545 72.1702L60.5563 67.3766L62.4596 72.1702H58.5545Z" fill="white"/>
</svg>
