<svg width="427" height="426" viewBox="0 0 427 426" fill="none" xmlns="http://www.w3.org/2000/svg">
<g opacity="0.15">
<path d="M343.178 190.154L213.779 213.763L237.311 342.74C242.281 369.977 268.768 388.237 296.082 383.254L425.482 359.645L401.95 230.668C396.98 203.432 370.493 185.17 343.178 190.154Z" stroke="#091423"/>
<path d="M130.311 43.4663L0.912223 67.0753L24.4442 196.053C29.4137 223.289 55.9007 241.55 83.2153 236.566L212.614 212.957L189.082 83.9808C184.113 56.7441 157.626 38.4827 130.311 43.4663Z" stroke="#091423"/>
</g>
<path fill-rule="evenodd" clip-rule="evenodd" d="M319.628 271.18C329.039 271.18 336.671 278.811 336.671 288.222C336.671 297.633 329.039 305.265 319.628 305.265C310.217 305.265 302.586 297.633 302.586 288.222C302.625 278.811 310.217 271.18 319.628 271.18Z" fill="#F7C331"/>
</svg>
