<svg width="24" height="24" viewBox="0 0 24 24" fill="none" xmlns="http://www.w3.org/2000/svg">
<path d="M12.2541 19.477C14.9359 19.477 17.1176 17.2953 17.1176 14.6135C17.1176 11.9317 14.9359 9.75 12.2541 9.75C9.57235 9.75 7.39062 11.9317 7.39062 14.6135C7.39062 17.2953 9.57235 19.477 12.2541 19.477ZM12.2541 10.3C14.6327 10.3 16.5676 12.2351 16.5676 14.6135C16.5676 16.9919 14.6327 18.927 12.2541 18.927C9.87555 18.927 7.94062 16.9919 7.94062 14.6135C7.94062 12.2351 9.87555 10.3 12.2541 10.3Z" fill="black"/>
<path d="M12.2906 12.6594C13.3254 12.6594 14.1673 13.5012 14.1673 14.5359C14.1673 14.6878 14.2903 14.8109 14.4423 14.8109C14.5943 14.8109 14.7173 14.6878 14.7173 14.5359C14.7173 13.198 13.6286 12.1094 12.2906 12.1094C12.1386 12.1094 12.0156 12.2325 12.0156 12.3844C12.0156 12.5362 12.1386 12.6594 12.2906 12.6594Z" fill="black"/>
<path d="M12.2741 23C16.8366 23 20.5482 19.2882 20.5482 14.7259C20.5482 12.3484 19.184 9.32541 16.4936 5.74077C14.5044 3.09042 12.4871 1.09883 12.4669 1.07909C12.3606 0.974222 12.1906 0.973819 12.0837 1.07681C11.7534 1.39397 4 8.91104 4 14.7259C4 19.2882 7.71167 23 12.2741 23ZM12.272 1.66387C13.4802 2.89908 19.9982 9.79417 19.9982 14.7259C19.9982 18.985 16.5331 22.45 12.2741 22.45C8.01514 22.45 4.55 18.985 4.55 14.7259C4.55 9.63935 11.0592 2.87893 12.272 1.66387Z" fill="black"/>
</svg>
