<svg width="25" height="25" viewBox="0 0 25 25" fill="none" xmlns="http://www.w3.org/2000/svg">
<g clip-path="url(#clip0_672_2943)">
<path d="M8.26439 14.1348C7.80107 14.4969 7.4266 14.96 7.16956 15.4888C6.91252 16.0177 6.77971 16.5982 6.78126 17.1862C6.78122 17.4493 6.80773 17.7118 6.86039 17.9696C6.86921 18.0188 6.88779 18.0658 6.91503 18.1077C6.94226 18.1496 6.97762 18.1857 7.019 18.2138C7.06038 18.2419 7.10696 18.2614 7.156 18.2712C7.20503 18.281 7.25554 18.2809 7.30453 18.2709C7.35352 18.2609 7.40002 18.2412 7.44129 18.2129C7.48256 18.1847 7.51776 18.1485 7.54483 18.1064C7.57189 18.0644 7.59028 18.0173 7.5989 17.9681C7.60751 17.9188 7.60619 17.8683 7.59501 17.8196C7.55275 17.6114 7.53139 17.3994 7.53126 17.187C7.52985 16.7125 7.63694 16.244 7.84433 15.8172C8.05173 15.3905 8.35395 15.0168 8.72789 14.7247C8.80611 14.6633 8.85671 14.5732 8.86856 14.4745C8.88041 14.3757 8.85254 14.2763 8.79108 14.198C8.72961 14.1198 8.63959 14.0692 8.54082 14.0574C8.44205 14.0455 8.34261 14.0734 8.26439 14.1348Z" fill="#091423"/>
<path d="M16.8815 17.7103C17.6181 17.7111 18.3453 17.5449 19.0085 17.2243C19.6717 16.9036 20.2536 16.4369 20.7105 15.8591C21.1674 15.2813 21.4874 14.6075 21.6465 13.8883C21.8056 13.1691 21.7997 12.4231 21.6291 11.7065C21.4586 10.9899 21.1278 10.3213 20.6618 9.75087C20.1957 9.18044 19.6065 8.72304 18.9383 8.41303C18.2701 8.10303 17.5403 7.94848 16.8038 7.96099C16.0673 7.9735 15.3432 8.15276 14.6859 8.48528C14.4569 7.89856 14.1024 7.36897 13.6473 6.93357C13.1922 6.49817 12.6475 6.16748 12.0512 5.96465C11.4549 5.76182 10.8215 5.69175 10.1953 5.75933C9.56911 5.82692 8.96524 6.03053 8.42597 6.35592C7.8867 6.6813 7.42505 7.12061 7.07332 7.64308C6.7216 8.16556 6.4883 8.75859 6.38975 9.38066C6.29121 10.0027 6.32979 10.6388 6.50281 11.2444C6.67583 11.85 6.9791 12.4105 7.3914 12.8867C6.6053 13.4738 5.99669 14.2666 5.63274 15.1778C5.26878 16.0889 5.16363 17.0829 5.3289 18.05C4.86663 18.1775 4.44325 18.4178 4.09679 18.7493C3.75033 19.0808 3.49162 19.4932 3.34391 19.9494C3.19621 20.4056 3.16411 20.8913 3.25052 21.363C3.33693 21.8347 3.53913 22.2775 3.83897 22.6517C4.1388 23.0259 4.52689 23.3198 4.96837 23.507C5.40986 23.6941 5.89091 23.7687 6.36835 23.724C6.84578 23.6793 7.30464 23.5168 7.70371 23.2509C8.10279 22.9851 8.4296 22.6243 8.65478 22.2009C9.74106 22.6378 10.9402 22.7086 12.0703 22.4025C13.2005 22.0964 14.2 21.4302 14.9173 20.5048C15.5678 19.681 15.9593 18.6828 16.0423 17.6364C16.3194 17.6849 16.6002 17.7097 16.8815 17.7103ZM21.0043 12.8372C21.0047 13.5818 20.8032 14.3126 20.4211 14.9517C20.039 15.5908 19.4906 16.1143 18.8345 16.4664C17.9815 16.9217 16.9966 17.0656 16.049 16.8733C16.0348 16.598 16.0012 16.3241 15.9485 16.0535V16.0513V16.0483C15.673 14.7895 14.9587 13.6697 13.9333 12.8893C14.6147 12.1046 14.9878 11.0991 14.9833 10.0599C14.9803 9.78277 14.951 9.50653 14.8959 9.23491C15.5026 8.89315 16.1871 8.71326 16.8834 8.71253C17.9762 8.71491 19.0236 9.15035 19.796 9.92346C20.5684 10.6966 21.0029 11.7443 21.0043 12.8372ZM7.0869 10.0584C7.08735 9.19176 7.40265 8.3548 7.97411 7.70326C8.54557 7.05172 9.33428 6.62999 10.1935 6.51654C11.0527 6.40309 11.9238 6.60565 12.6448 7.08652C13.3658 7.5674 13.8875 8.29384 14.1129 9.13066C14.1927 9.43345 14.2329 9.74529 14.2325 10.0584C14.2357 10.9523 13.9008 11.8143 13.295 12.4715C13.0515 12.3314 12.7977 12.2102 12.5357 12.1089H12.5338C11.8015 11.8396 11.0195 11.7322 10.2416 11.7941C9.46383 11.856 8.70867 12.0857 8.02815 12.4674C7.42586 11.8093 7.0903 10.9505 7.0869 10.0584ZM6.1074 22.9862C5.59197 22.9864 5.09369 22.8011 4.70379 22.464C4.31389 22.1269 4.05846 21.6606 3.98427 21.1505C3.91009 20.6405 4.02211 20.1208 4.29983 19.6866C4.57754 19.2524 5.00237 18.9327 5.49652 18.7862C5.90617 20.0929 6.7945 21.1967 7.98352 21.8762C7.79857 22.212 7.52697 22.4921 7.19701 22.6873C6.86705 22.8825 6.49079 22.9857 6.1074 22.9862ZM14.3289 20.0435C13.8968 20.6052 13.341 21.0595 12.7046 21.3711C12.0682 21.6827 11.3685 21.8432 10.6599 21.8402C9.78184 21.839 8.92201 21.5895 8.17974 21.1205C7.43747 20.6514 6.84304 19.9819 6.46513 19.1894C6.08722 18.3968 5.94124 17.5135 6.04406 16.6415C6.14689 15.7694 6.49431 14.9443 7.0462 14.2614C7.5981 13.5784 8.33194 13.0656 9.16295 12.782C9.99397 12.4984 10.8882 12.4558 11.7425 12.6589C12.5967 12.8621 13.3761 13.3027 13.9905 13.93C14.6049 14.5573 15.0293 15.3456 15.2147 16.2039C15.2811 16.5271 15.315 16.8561 15.3159 17.186C15.3202 18.2229 14.9722 19.2304 14.3289 20.0435Z" fill="#091423"/>
<path d="M16.8828 10.1484C17.5963 10.1492 18.2803 10.433 18.7848 10.9375C19.2892 11.442 19.573 12.126 19.5738 12.8394C19.5738 12.9389 19.6133 13.0343 19.6836 13.1046C19.754 13.1749 19.8494 13.2144 19.9488 13.2144C20.0483 13.2144 20.1437 13.1749 20.214 13.1046C20.2843 13.0343 20.3238 12.9389 20.3238 12.8394C20.3227 11.9272 19.9598 11.0526 19.3148 10.4075C18.6697 9.76241 17.7951 9.39953 16.8828 9.39844C16.7834 9.39844 16.688 9.43795 16.6176 9.50827C16.5473 9.5786 16.5078 9.67398 16.5078 9.77344C16.5078 9.87289 16.5473 9.96828 16.6176 10.0386C16.688 10.1089 16.7834 10.1484 16.8828 10.1484Z" fill="#091423"/>
<path d="M21.1604 4.27906C21.1604 3.76799 21.0087 3.26841 20.7248 2.8435C20.4408 2.41859 20.0371 2.08744 19.565 1.89191C19.0928 1.69638 18.5732 1.64526 18.0719 1.74501C17.5707 1.84476 17.1103 2.09091 16.7489 2.45232C16.3876 2.81373 16.1415 3.27418 16.0418 3.77544C15.9421 4.2767 15.9933 4.79626 16.1889 5.26843C16.3845 5.74059 16.7157 6.14415 17.1407 6.42808C17.5656 6.71202 18.0652 6.86356 18.5763 6.86356C19.2615 6.86267 19.9183 6.59008 20.4027 6.10557C20.8871 5.62107 21.1596 4.96421 21.1604 4.27906ZM16.7422 4.27906C16.7423 3.91632 16.8499 3.56175 17.0515 3.26018C17.2531 2.95861 17.5395 2.72358 17.8747 2.58482C18.2098 2.44606 18.5786 2.40979 18.9344 2.4806C19.2901 2.55141 19.6169 2.72613 19.8734 2.98265C20.1298 3.23917 20.3045 3.56598 20.3752 3.92176C20.446 4.27753 20.4096 4.64629 20.2708 4.98141C20.132 5.31653 19.8969 5.60296 19.5953 5.80448C19.2936 6.006 18.9391 6.11356 18.5763 6.11356C18.0901 6.11267 17.624 5.91909 17.2802 5.57524C16.9365 5.23139 16.743 4.76529 16.7422 4.27906Z" fill="#091423"/>
<path d="M4.91675 7.69362C5.34538 7.6937 5.76441 7.56666 6.12084 7.32858C6.47727 7.0905 6.7551 6.75207 6.91918 6.35608C7.08326 5.9601 7.12623 5.52435 7.04265 5.10395C6.95908 4.68354 6.75271 4.29736 6.44965 3.99424C6.14658 3.69113 5.76044 3.48469 5.34005 3.40104C4.91966 3.31739 4.4839 3.36029 4.08789 3.5243C3.69188 3.68832 3.3534 3.96608 3.11525 4.32247C2.87711 4.67886 2.75 5.09787 2.75 5.5265C2.7506 6.10101 2.97906 6.65182 3.38526 7.0581C3.79147 7.46437 4.34224 7.69293 4.91675 7.69362ZM4.91675 4.10975C5.19706 4.10968 5.4711 4.19274 5.7042 4.34842C5.93731 4.50411 6.119 4.72543 6.2263 4.98439C6.33361 5.24335 6.36171 5.52832 6.30704 5.80325C6.25237 6.07818 6.11739 6.33072 5.91918 6.52893C5.72097 6.72714 5.46843 6.86212 5.1935 6.91679C4.91857 6.97146 4.6336 6.94336 4.37464 6.83606C4.11568 6.72875 3.89436 6.54706 3.73867 6.31395C3.58298 6.08085 3.49993 5.80681 3.5 5.5265C3.5002 5.15071 3.64949 4.79036 3.91511 4.52453C4.18072 4.2587 4.54096 4.10912 4.91675 4.10863V4.10975Z" fill="#091423"/>
<path d="M19.4813 18.6094C18.9288 18.6093 18.3887 18.7731 17.9292 19.08C17.4698 19.3869 17.1117 19.8231 16.9002 20.3335C16.6888 20.8439 16.6334 21.4056 16.7411 21.9475C16.8489 22.4894 17.1149 22.9871 17.5055 23.3778C17.8962 23.7685 18.3939 24.0346 18.9358 24.1424C19.4777 24.2502 20.0393 24.1949 20.5498 23.9835C21.0602 23.7721 21.4965 23.4141 21.8035 22.9547C22.1104 22.4953 22.2743 21.9552 22.2743 21.4028C22.2735 20.6622 21.979 19.9522 21.4553 19.4285C20.9317 18.9049 20.2218 18.6103 19.4813 18.6094ZM19.4813 23.4469C19.0771 23.4469 18.682 23.3272 18.3459 23.1027C18.0098 22.8782 17.7478 22.559 17.5931 22.1856C17.4384 21.8122 17.3979 21.4014 17.4767 21.0049C17.5556 20.6085 17.7502 20.2444 18.036 19.9586C18.3218 19.6728 18.6859 19.4782 19.0823 19.3994C19.4787 19.3205 19.8896 19.361 20.263 19.5157C20.6364 19.6704 20.9555 19.9324 21.18 20.2685C21.4045 20.6046 21.5243 20.9997 21.5243 21.4039C21.5236 21.9455 21.3081 22.4647 20.9251 22.8477C20.5421 23.2307 20.0229 23.4462 19.4813 23.4469Z" fill="#091423"/>
<path d="M20.4316 21.0234C20.3322 21.0234 20.2368 21.0629 20.1665 21.1333C20.0961 21.2036 20.0566 21.299 20.0566 21.3984C20.0564 21.5501 19.9961 21.6956 19.8888 21.8029C19.7815 21.9101 19.6361 21.9705 19.4844 21.9707C19.3849 21.9707 19.2895 22.0102 19.2192 22.0805C19.1489 22.1508 19.1094 22.2462 19.1094 22.3457C19.1094 22.4451 19.1489 22.5405 19.2192 22.6109C19.2895 22.6812 19.3849 22.7207 19.4844 22.7207C19.8349 22.7203 20.171 22.5809 20.4189 22.333C20.6668 22.0851 20.8062 21.749 20.8066 21.3984C20.8066 21.299 20.7671 21.2036 20.6968 21.1333C20.6265 21.0629 20.5311 21.0234 20.4316 21.0234Z" fill="#091423"/>
</g>
<defs>
<clipPath id="clip0_672_2943">
<rect width="24" height="24" fill="white" transform="translate(0.515625 0.945312)"/>
</clipPath>
</defs>
</svg>
